<?xml version="1.0" encoding="UTF-8" standalone="no"?>
<svg
   xmlns:dc="http://purl.org/dc/elements/1.1/"
   xmlns:cc="http://creativecommons.org/ns#"
   xmlns:rdf="http://www.w3.org/1999/02/22-rdf-syntax-ns#"
   xmlns:svg="http://www.w3.org/2000/svg"
   xmlns="http://www.w3.org/2000/svg"
   xmlns:sodipodi="http://sodipodi.sourceforge.net/DTD/sodipodi-0.dtd"
   xmlns:inkscape="http://www.inkscape.org/namespaces/inkscape"
   width="16"
   height="16"
   viewBox="0 0 4.2333332 4.2333335"
   version="1.1"
   id="svg8"
   inkscape:version="1.0.1 (0767f8302a, 2020-10-17)"
   sodipodi:docname="exclude.svg">
  <defs
     id="defs2" />
  <sodipodi:namedview
     id="base"
     pagecolor="#ffffff"
     bordercolor="#666666"
     borderopacity="1.0"
     inkscape:pageopacity="0.0"
     inkscape:pageshadow="2"
     inkscape:zoom="33.966452"
     inkscape:cx="9.7123767"
     inkscape:cy="10.316561"
     inkscape:document-units="mm"
     inkscape:current-layer="layer1"
     showgrid="false"
     units="px"
     inkscape:window-width="2524"
     inkscape:window-height="1052"
     inkscape:window-x="36"
     inkscape:window-y="0"
     inkscape:window-maximized="1"
     inkscape:document-rotation="0" />
  <metadata
     id="metadata5">
    <rdf:RDF>
      <cc:Work
         rdf:about="">
        <dc:format>image/svg+xml</dc:format>
        <dc:type
           rdf:resource="http://purl.org/dc/dcmitype/StillImage" />
        <dc:title />
      </cc:Work>
    </rdf:RDF>
  </metadata>
  <g
     inkscape:label="Layer 1"
     inkscape:groupmode="layer"
     id="layer1"
     transform="translate(0,-292.76665)">
    <path
       style="fill:none;fill-opacity:1;stroke:#ff9600;stroke-width:0.396875;stroke-linecap:butt;stroke-linejoin:miter;stroke-miterlimit:4;stroke-dasharray:none;stroke-opacity:1"
       d="M 0.52916671,294.00014 H 1.9378257"
       id="path844" />
    <path
       id="path846"
       clip-path="none"
       style="fill:#ff9600;stroke:none;stroke-width:1.08004;stroke-linecap:round;stroke-linejoin:round;stroke-miterlimit:4;stroke-dasharray:none"
       d="M 10.220703 6.4375 A 3.8041198 3.8041198 0 0 0 6.4882812 10.240234 A 3.8041198 3.8041198 0 0 0 6.4921875 10.408203 L 10.460938 6.4394531 A 3.8041198 3.8041198 0 0 0 10.291016 6.4375 A 3.8041198 3.8041198 0 0 0 10.220703 6.4375 z M 11.378906 6.5957031 L 6.6464844 11.328125 A 3.8041198 3.8041198 0 0 0 7.359375 12.662109 L 12.712891 7.3066406 A 3.8041198 3.8041198 0 0 0 11.378906 6.5957031 z M 13.248047 7.8496094 L 7.9003906 13.197266 A 3.8041198 3.8041198 0 0 0 9.2460938 13.896484 L 13.947266 9.1953125 A 3.8041198 3.8041198 0 0 0 13.248047 7.8496094 z M 14.09375 10.126953 L 10.177734 14.042969 A 3.8041198 3.8041198 0 0 0 10.291016 14.044922 A 3.8041198 3.8041198 0 0 0 14.095703 10.240234 A 3.8041198 3.8041198 0 0 0 14.09375 10.126953 z "
       transform="matrix(0.26458333,0,0,0.26458333,0,292.76665)" />
    <g
       id="g1086"
       transform="rotate(-45,0.93171652,288.24226)" />
  </g>
</svg>
