<?xml version="1.0" encoding="UTF-8" standalone="no"?>
<svg
   version="1.1"
   id="Layer_1"
   x="0px"
   y="0px"
   viewBox="0 0 122.88 120.79"
   style="enable-background:new 0 0 122.88 120.79"
   xml:space="preserve"
   sodipodi:docname="select_all.svg"
   inkscape:version="1.2.1 (9c6d41e410, 2022-07-14)"
   xmlns:inkscape="http://www.inkscape.org/namespaces/inkscape"
   xmlns:sodipodi="http://sodipodi.sourceforge.net/DTD/sodipodi-0.dtd"
   xmlns="http://www.w3.org/2000/svg"
   xmlns:svg="http://www.w3.org/2000/svg"><defs
     id="defs9" /><sodipodi:namedview
     id="namedview7"
     pagecolor="#ffffff"
     bordercolor="#666666"
     borderopacity="1.0"
     inkscape:showpageshadow="2"
     inkscape:pageopacity="0.0"
     inkscape:pagecheckerboard="0"
     inkscape:deskcolor="#d1d1d1"
     showgrid="false"
     inkscape:zoom="2.5494246"
     inkscape:cx="50.599652"
     inkscape:cy="89.628066"
     inkscape:window-width="2530"
     inkscape:window-height="1050"
     inkscape:window-x="30"
     inkscape:window-y="0"
     inkscape:window-maximized="1"
     inkscape:current-layer="Layer_1" /><g
     id="g4"
     style="fill:#ffffff"><path
       d="M31.4,21.63h60.68V7.68c0-0.08-0.02-0.16-0.04-0.22c-0.03-0.07-0.08-0.14-0.13-0.19l-0.01-0.01 c-0.05-0.06-0.12-0.1-0.19-0.13c-0.07-0.03-0.15-0.04-0.23-0.04H7.68c-0.08,0-0.16,0.02-0.22,0.04C7.39,7.15,7.32,7.2,7.25,7.26 L7.23,7.28C7.19,7.33,7.15,7.39,7.12,7.46C7.09,7.53,7.08,7.6,7.08,7.68v83.8c0,0.08,0.02,0.16,0.05,0.22l0.01,0.03 c0.03,0.06,0.07,0.13,0.12,0.18c0.06,0.06,0.13,0.1,0.2,0.13l0.02,0.01c0.06,0.02,0.13,0.04,0.2,0.04h16.04V29.31 c0-1.03,0.21-2.03,0.58-2.93c0.39-0.94,0.96-1.79,1.67-2.5l0.04-0.04c0.7-0.69,1.54-1.25,2.46-1.63 C29.38,21.84,30.37,21.63,31.4,21.63L31.4,21.63z M51.99,75.95c-0.95-0.86-1.47-2.03-1.53-3.23c-0.06-1.19,0.34-2.4,1.2-3.35 c0.86-0.95,2.04-1.47,3.23-1.53c1.18-0.06,2.4,0.34,3.35,1.2l9.09,8.25l20.78-21.88c0.89-0.93,2.07-1.42,3.27-1.45 c1.19-0.03,2.4,0.4,3.33,1.28c0.93,0.89,1.42,2.07,1.45,3.27c0.03,1.19-0.4,2.4-1.28,3.33L69.84,88.19L69.59,88 c-0.58,0.28-1.21,0.43-1.85,0.46c-1.17,0.04-2.36-0.35-3.29-1.2L51.99,75.95L51.99,75.95z M99.15,21.63h16.04 c1.03,0,2.03,0.21,2.93,0.59c0.94,0.39,1.79,0.96,2.5,1.67l0.04,0.04c0.69,0.7,1.25,1.53,1.63,2.45c0.38,0.91,0.58,1.9,0.58,2.94 v83.8c0,1.04-0.21,2.03-0.58,2.93c-0.39,0.94-0.96,1.79-1.67,2.5c-0.71,0.71-1.55,1.28-2.5,1.67c-0.91,0.38-1.9,0.59-2.93,0.59 H31.4c-1.03,0-2.02-0.21-2.93-0.58c-0.94-0.39-1.79-0.96-2.5-1.67c-0.71-0.71-1.28-1.56-1.67-2.5c-0.38-0.91-0.58-1.9-0.58-2.93 V99.16H7.68c-1.03,0-2.03-0.21-2.93-0.59c-0.94-0.39-1.79-0.96-2.5-1.67c-0.71-0.71-1.28-1.56-1.67-2.5C0.21,93.5,0,92.51,0,91.48 V7.68c0-1.04,0.21-2.03,0.58-2.93c0.39-0.94,0.96-1.79,1.67-2.5c0.71-0.71,1.55-1.28,2.5-1.67C5.66,0.21,6.65,0,7.68,0h83.79 c1.04,0,2.03,0.21,2.93,0.58c0.94,0.39,1.79,0.96,2.5,1.67c1.4,1.4,2.26,3.31,2.26,5.43V21.63L99.15,21.63z M115.2,28.7H31.4 c-0.08,0-0.15,0.02-0.22,0.04c-0.08,0.03-0.15,0.08-0.2,0.14l-0.01,0.01c-0.06,0.05-0.1,0.12-0.13,0.19 c-0.03,0.07-0.04,0.14-0.04,0.22v83.8c0,0.08,0.02,0.16,0.04,0.22c0.03,0.07,0.08,0.14,0.14,0.2l0.02,0.02 c0.05,0.05,0.12,0.09,0.18,0.11c0.07,0.03,0.14,0.04,0.22,0.04h83.79c0.08,0,0.16-0.02,0.22-0.04l0.02-0.01 c0.07-0.03,0.13-0.07,0.18-0.13c0.05-0.06,0.1-0.12,0.13-0.19l0.01-0.02c0.02-0.06,0.03-0.13,0.03-0.21v-83.8 c0-0.08-0.02-0.15-0.04-0.22l-0.01-0.02c-0.03-0.06-0.07-0.12-0.12-0.17c-0.06-0.06-0.13-0.11-0.2-0.14 C115.35,28.72,115.28,28.7,115.2,28.7L115.2,28.7z"
       id="path2"
       style="fill:#ffffff" /></g></svg>
