<?xml version="1.0" encoding="UTF-8" standalone="no"?>
<svg
   shape-rendering="geometricPrecision"
   text-rendering="geometricPrecision"
   image-rendering="optimizeQuality"
   fill-rule="evenodd"
   clip-rule="evenodd"
   viewBox="0 0 16 16"
   version="1.1"
   id="svg4"
   sodipodi:docname="documentation.svg"
   width="16"
   height="16"
   inkscape:version="1.2.1 (9c6d41e410, 2022-07-14)"
   xmlns:inkscape="http://www.inkscape.org/namespaces/inkscape"
   xmlns:sodipodi="http://sodipodi.sourceforge.net/DTD/sodipodi-0.dtd"
   xmlns="http://www.w3.org/2000/svg"
   xmlns:svg="http://www.w3.org/2000/svg">
  <defs
     id="defs8" />
  <sodipodi:namedview
     id="namedview6"
     pagecolor="#ffffff"
     bordercolor="#666666"
     borderopacity="1.0"
     inkscape:showpageshadow="2"
     inkscape:pageopacity="0.0"
     inkscape:pagecheckerboard="0"
     inkscape:deskcolor="#d1d1d1"
     showgrid="false"
     inkscape:zoom="19.243931"
     inkscape:cx="19.122912"
     inkscape:cy="9.4315447"
     inkscape:window-width="1686"
     inkscape:window-height="690"
     inkscape:window-x="239"
     inkscape:window-y="117"
     inkscape:window-maximized="0"
     inkscape:current-layer="svg4" />
  <path
     d="m 14.420997,15.163239 c 0,0.232468 -0.09374,0.440566 -0.245279,0.592107 C 14.025113,15.906263 13.816392,16 13.587673,16 H 2.4160758 C 2.1873571,16 1.9748861,15.906263 1.8242818,15.755346 1.6727399,15.603805 1.5790028,15.395707 1.5790028,15.163239 V 0.837073 c 0,-0.2327807 0.093737,-0.4415021 0.245279,-0.5921065 C 1.9748861,0.0937371 2.1829827,0 2.4160758,0 h 7.1871425 c 0.143105,0 0.274025,0.064991 0.359638,0.1715391 l 4.0185127,3.9129025 c 0.139981,0.1365438 0.439628,0.387447 0.439628,0.6055422 z M 7.23073,11.348448 c 0,-0.267463 0.019059,-0.50743 0.058117,-0.719901 C 7.326655,10.415138 7.3928961,10.223602 7.4872578,10.0555 7.5797448,9.887398 7.7087901,9.738044 7.8703304,9.608999 8.0115613,9.497764 8.1324822,9.390904 8.2315311,9.284043 8.3321425,9.179058 8.4090068,9.073759 8.4643118,8.9700237 c 0.05468,-0.1052983 0.082801,-0.209034 0.082801,-0.314332 0,-0.2102838 -0.043744,-0.3630755 -0.1334193,-0.4552503 -0.089675,-0.09155 -0.2230944,-0.1387311 -0.4002577,-0.1387311 -0.5108677,0 -0.5611733,0.4093191 -0.5611733,0.9526827 H 5.7856151 C 5.792175,8.5319585 5.8952871,7.8726737 6.0921357,7.5799011 6.2896086,7.2852539 6.5551973,7.0705958 6.8901516,6.9359267 7.2244809,6.8003202 7.6000546,6.7331419 8.0134356,6.7331419 c 0.6845939,0 1.2217077,0.1537291 1.6129047,0.4618119 0.3911957,0.3077704 0.5877317,0.76802 0.5877317,1.378874 0,0.2640264 -0.05187,0.4886832 -0.152479,0.6755322 C 9.9594193,9.436522 9.8263123,9.610873 9.6594603,9.772414 a 70.395376,70.395376 0 0 1 -0.5592983,0.52649 c -0.1790381,0.153729 -0.2983967,0.305896 -0.3596383,0.455563 -0.061241,0.150917 -0.095925,0.348702 -0.1052983,0.593981 z m -0.197473,1.37575 c 0,-0.245279 0.084675,-0.449313 0.2524655,-0.611167 0.1699768,-0.163102 0.388072,-0.244966 0.6583475,-0.244966 0.2734001,0 0.4933701,0.08186 0.661472,0.244966 0.1662273,0.161854 0.2493409,0.365888 0.2493409,0.611167 0,0.241842 -0.083113,0.445876 -0.2493409,0.609291 -0.1681019,0.164978 -0.3880719,0.246841 -0.661472,0.246841 -0.2702755,0 -0.4883707,-0.08186 -0.6583475,-0.246841 C 7.1179329,13.170074 7.0332571,12.96604 7.033257,12.724198 Z m 3.130822,-11.1822213 2.796492,2.6193294 h -2.796492 z m 3.417346,3.5542016 c 0,3.2920499 0.0031,6.7700117 0.0031,10.0642487 H 2.4192004 V 0.8358232 H 9.2288943 V 4.626555 c 0,0.2574648 0.2084089,0.4696233 0.4693109,0.4696233 z"
     id="path2"
     style="fill:#ffffff;stroke-width:0.0312457" />
</svg>
