<?xml version="1.0" encoding="UTF-8" standalone="no"?>
<svg
   version="1.1"
   id="Layer_1"
   x="0px"
   y="0px"
   viewBox="0 0 16 16"
   xml:space="preserve"
   sodipodi:docname="duplicate.svg"
   inkscape:version="1.2.1 (9c6d41e410, 2022-07-14)"
   width="16"
   height="16"
   xmlns:inkscape="http://www.inkscape.org/namespaces/inkscape"
   xmlns:sodipodi="http://sodipodi.sourceforge.net/DTD/sodipodi-0.dtd"
   xmlns="http://www.w3.org/2000/svg"
   xmlns:svg="http://www.w3.org/2000/svg"><defs
     id="defs11" /><sodipodi:namedview
     id="namedview9"
     pagecolor="#ffffff"
     bordercolor="#666666"
     borderopacity="1.0"
     inkscape:showpageshadow="2"
     inkscape:pageopacity="0.0"
     inkscape:pagecheckerboard="0"
     inkscape:deskcolor="#d1d1d1"
     showgrid="false"
     inkscape:zoom="28.352865"
     inkscape:cx="9.5052122"
     inkscape:cy="7.2832145"
     inkscape:window-width="2530"
     inkscape:window-height="1050"
     inkscape:window-x="30"
     inkscape:window-y="0"
     inkscape:window-maximized="1"
     inkscape:current-layer="Layer_1" /><style
     type="text/css"
     id="style2">.st0{fill-rule:evenodd;clip-rule:evenodd;}</style><g
     id="g6"
     style="fill:#ffffff"
     transform="matrix(0.12092943,0,0,0.12092943,0.99999994,0.57009582)"><path
       class="st0"
       d="m 89.62,13.96 v 7.73 h 12.19 0.01 v 0.02 c 3.85,0.01 7.34,1.57 9.86,4.1 2.5,2.51 4.06,5.98 4.07,9.82 h 0.02 v 0.02 73.27 0.01 h -0.02 c -0.01,3.84 -1.57,7.33 -4.1,9.86 -2.51,2.5 -5.98,4.06 -9.82,4.07 v 0.02 h -0.02 -61.7 -0.01 v -0.02 c -3.84,-0.01 -7.34,-1.57 -9.86,-4.1 -2.5,-2.51 -4.06,-5.98 -4.07,-9.82 H 26.15 V 108.92 92.51 H 13.96 13.95 V 92.49 C 10.11,92.48 6.61,90.92 4.09,88.39 1.59,85.88 0.03,82.41 0.02,78.57 H 0 V 78.55 13.96 13.95 H 0.02 C 0.03,10.1 1.6,6.61 4.12,4.09 6.63,1.59 10.1,0.03 13.94,0.02 V 0 h 0.02 61.7 0.01 v 0.02 c 3.85,0.01 7.34,1.57 9.86,4.1 2.5,2.51 4.06,5.98 4.07,9.82 h 0.02 z m -10.58,7.73 v -7.73 -0.02 h 0.02 c 0,-0.91 -0.39,-1.75 -1.01,-2.37 -0.61,-0.61 -1.46,-1 -2.37,-1 v 0.02 h -0.01 -61.7 -0.02 v -0.02 c -0.91,0 -1.75,0.39 -2.37,1.01 -0.61,0.61 -1,1.46 -1,2.37 h 0.02 v 0.01 64.59 0.02 h -0.02 c 0,0.91 0.39,1.75 1.01,2.37 0.61,0.61 1.46,1 2.37,1 v -0.02 h 0.01 12.19 V 35.65 35.64 h 0.02 c 0.01,-3.85 1.58,-7.34 4.1,-9.86 2.51,-2.5 5.98,-4.06 9.82,-4.07 v -0.02 h 0.02 z m 26.14,87.23 V 35.65 35.63 h 0.02 c 0,-0.91 -0.39,-1.75 -1.01,-2.37 -0.61,-0.61 -1.46,-1 -2.37,-1 v 0.02 h -0.01 -61.7 -0.02 v -0.02 c -0.91,0 -1.75,0.39 -2.37,1.01 -0.61,0.61 -1,1.46 -1,2.37 h 0.02 v 0.01 73.27 0.02 h -0.02 c 0,0.91 0.39,1.75 1.01,2.37 0.61,0.61 1.46,1 2.37,1 v -0.02 h 0.01 61.7 0.02 v 0.02 c 0.91,0 1.75,-0.39 2.37,-1.01 0.61,-0.61 1,-1.46 1,-2.37 h -0.02 z"
       id="path4"
       style="fill:#ffffff" /></g></svg>
