<?xml version="1.0" encoding="UTF-8" standalone="no"?>
<svg
   height="16"
   viewBox="0 0 16 16"
   width="16"
   version="1.1"
   id="svg134"
   sodipodi:docname="global.svg"
   inkscape:version="1.2 (dc2aedaf03, 2022-05-15)"
   xmlns:inkscape="http://www.inkscape.org/namespaces/inkscape"
   xmlns:sodipodi="http://sodipodi.sourceforge.net/DTD/sodipodi-0.dtd"
   xmlns="http://www.w3.org/2000/svg"
   xmlns:svg="http://www.w3.org/2000/svg">
  <defs
     id="defs138" />
  <sodipodi:namedview
     id="namedview136"
     pagecolor="#ffffff"
     bordercolor="#666666"
     borderopacity="1.0"
     inkscape:showpageshadow="2"
     inkscape:pageopacity="0.0"
     inkscape:pagecheckerboard="0"
     inkscape:deskcolor="#d1d1d1"
     showgrid="false"
     inkscape:zoom="54.4375"
     inkscape:cx="6.7876005"
     inkscape:cy="10.95752"
     inkscape:window-width="2530"
     inkscape:window-height="1050"
     inkscape:window-x="30"
     inkscape:window-y="0"
     inkscape:window-maximized="1"
     inkscape:current-layer="svg134" />
  <path
     d="m 14.999026,12.016599 a 1,1 0 0 1 -0.291316,0.691406 l -2,2 a 1,1 0 0 1 -1.414062,0 1,1 0 0 1 0,-1.414062 l 0.292968,-0.292969 H 3.0006784 V 4.4150363 l -0.292969,0.292969 a 1,1 0 0 1 -1.414062,0 1,1 0 0 1 0,-1.414062 l 2,-2 a 1,1 0 0 1 1.414062,0 l 2.0000002,2 a 1,1 0 0 1 0.2910157,0.720703 1,1 0 0 1 -0.2910157,0.693359 1,1 0 0 1 -1.4140622,0 l -0.292969,-0.292969 v 6.5859377 h 6.5859376 l -0.292968,-0.292969 a 1,1 0 0 1 0,-1.4140619 1,1 0 0 1 1.414062,0 l 2,1.9999999 a 1,1 0 0 1 0.291316,0.722656 z"
     fill="#e0e0e0"
     id="path132"
     style="fill:#ffffff;fill-opacity:1" />
  <rect
     style="fill:none;fill-opacity:1;stroke:#ffffff;stroke-width:0.809572;stroke-linecap:round;stroke-linejoin:round;stroke-dasharray:none;stroke-opacity:1"
     id="rect587"
     width="3.190428"
     height="3.1904278"
     x="4.5377126"
     y="8.3021555"
     ry="0" />
</svg>
