<?xml version="1.0" encoding="UTF-8" standalone="no"?>
<svg
   version="1.1"
   id="Layer_1"
   x="0px"
   y="0px"
   viewBox="0 0 16 16"
   xml:space="preserve"
   sodipodi:docname="shape.svg"
   width="16"
   height="16"
   inkscape:version="1.2.2 (b0a8486541, 2022-12-01)"
   xmlns:inkscape="http://www.inkscape.org/namespaces/inkscape"
   xmlns:sodipodi="http://sodipodi.sourceforge.net/DTD/sodipodi-0.dtd"
   xmlns="http://www.w3.org/2000/svg"
   xmlns:svg="http://www.w3.org/2000/svg"><defs
     id="defs139" /><sodipodi:namedview
     id="namedview137"
     pagecolor="#ffffff"
     bordercolor="#666666"
     borderopacity="1.0"
     inkscape:showpageshadow="2"
     inkscape:pageopacity="0.0"
     inkscape:pagecheckerboard="0"
     inkscape:deskcolor="#d1d1d1"
     showgrid="false"
     inkscape:zoom="29.349693"
     inkscape:cx="5.1789298"
     inkscape:cy="9.9660326"
     inkscape:window-width="2528"
     inkscape:window-height="1050"
     inkscape:window-x="32"
     inkscape:window-y="0"
     inkscape:window-maximized="1"
     inkscape:current-layer="Layer_1" /><g
     id="g134"
     transform="matrix(0.11393222,0,0,0.11393222,1.0000044,1.0366854)"
     style="fill:#ff9600;fill-opacity:1"><path
       d="m 122.57,29.25 0.31,62.88 c 0.01,3.28 -2.05,6.1 -5,7.29 l 0.01,0.01 -54.64,22.09 c -0.99,0.4 -2.05,0.6 -3.12,0.6 -0.11,0 -0.22,0 -0.33,-0.01 -0.47,0.08 -0.95,0.13 -1.42,0.13 -1.06,0 -2.11,-0.21 -3.08,-0.62 L 4.94,100.46 v -0.01 C 2.03,99.22 -0.01,96.32 0,92.94 L 0.3,30.86 C 0.26,30.2 0.3,29.53 0.42,28.87 0.44,27.92 0.64,26.99 1,26.11 1.84,24.07 3.47,22.56 5.42,21.78 V 21.77 L 57.98,0.6 c 2.14,-0.86 4.44,-0.77 6.4,0.07 l 52.47,18.97 c 3.14,1.13 5.13,3.96 5.27,7.01 0.29,0.84 0.45,1.72 0.45,2.6 z M 51.51,108.46 51.9,53.69 9.82,35.5 8.93,90.49 Z m 62.07,-72.96 -47.03,18.2 0.37,54.71 46.94,-17.54 z"
       id="path132"
       style="fill:#ff9600;fill-opacity:1" /></g></svg>
